# xmcd
#
# Track frame offsets: 
#        150
#        9751
#        21870
#        30822
#        39906
#        61758
#        68627
#        80338
#        92066
#        103045
#        112692
#        123450
#        145982
#        171539
#        178693
#        187815
#        202581
#        222006
#
# Disc length: 3165 seconds
#
# Revision: 2
# Processed by: cddbd v1.5.2PL0 Copyright (c) Steve Scherf et al.
# Submitted via: ExactAudioCopy v1.0b1
#
DISCID=d50c5b12
DTITLE=Мужской хор С-Пб Подворья Оптиной Пустыни - Заутра услыши глас 
DTITLE=мой
DYEAR=2006
DGENRE=Vocal
TTITLE0=Благослови, душе моя Господа(П.Г. Чесноков)
TTITLE1=От юности моея(П.Г. Чесноков)
TTITLE2=Единородный Сыне(А.Т. Гречанинов)
TTITLE3=Ныне отпущаеши(А.Т. Гречанинов)
TTITLE4=Благослови, деуше моя Господа (А.Т. Гречанинов)
TTITLE5=Свет неизменный Слове
TTITLE6=На гору учеником идущим
TTITLE7=Тропарь безплотным силам(А.В. Закревский)
TTITLE8=Свыше пророцы(М.А. Балакирев)
TTITLE9=Красоте девства Твоего(М.Ю. Рузанов)
TTITLE10=Богородице Дево Радуйся
TTITLE11=Херувимская песнь
TTITLE12=Милость мира
TTITLE13=Достойно есть(А.В. Бордак)
TTITLE14=Кондак о Мытаре и Фарисее(Г.В. Свиридов Четыре стихиры для му
TTITLE14=жского хора)
TTITLE15=Заутра услыши глас мой(Г.В. Свиридов Четыре стихиры для мужск
TTITLE15=ого хора)
TTITLE16=Тайная вечеря(Г.В. Свиридов Четыре стихиры для мужского хора)
TTITLE17=Господи воззвах к Тебе(Г.В. Свиридов Четыре стихиры для мужск
TTITLE17=ого хора)
EXTD=
EXTT0=
EXTT1=
EXTT2=
EXTT3=
EXTT4=
EXTT5=
EXTT6=
EXTT7=
EXTT8=
EXTT9=
EXTT10=
EXTT11=
EXTT12=
EXTT13=
EXTT14=
EXTT15=
EXTT16=
EXTT17=
PLAYORDER=
